<?xml version="1.0" encoding="UTF-8" standalone="no"?>
<!-- Created with Inkscape (http://www.inkscape.org/) -->

<svg
   version="1.1"
   id="svg1"
   width="200"
   height="172.93456"
   viewBox="0 0 200 172.93456"
   sodipodi:docname="fornet_color.svg"
   xml:space="preserve"
   inkscape:version="1.3.2 (091e20ef0f, 2023-11-25, custom)"
   xmlns:inkscape="http://www.inkscape.org/namespaces/inkscape"
   xmlns:sodipodi="http://sodipodi.sourceforge.net/DTD/sodipodi-0.dtd"
   xmlns:xlink="http://www.w3.org/1999/xlink"
   xmlns="http://www.w3.org/2000/svg"
   xmlns:svg="http://www.w3.org/2000/svg"><defs
     id="defs1"><linearGradient
       id="linearGradient16"
       inkscape:collect="always"><stop
         style="stop-color:#ff6600;stop-opacity:1;"
         offset="0"
         id="stop16" /><stop
         style="stop-color:#f29513;stop-opacity:1;"
         offset="1"
         id="stop17" /></linearGradient><linearGradient
       inkscape:collect="always"
       xlink:href="#linearGradient16"
       id="linearGradient17"
       x1="168.86688"
       y1="89.852425"
       x2="168.86688"
       y2="215.94667"
       gradientUnits="userSpaceOnUse"
       spreadMethod="pad" /></defs><sodipodi:namedview
     id="namedview1"
     pagecolor="#ffffff"
     bordercolor="#000000"
     borderopacity="0.25"
     inkscape:showpageshadow="2"
     inkscape:pageopacity="0.0"
     inkscape:pagecheckerboard="0"
     inkscape:deskcolor="#d1d1d1"
     inkscape:zoom="3.743232"
     inkscape:cx="73.198776"
     inkscape:cy="118.07978"
     inkscape:window-width="1920"
     inkscape:window-height="1006"
     inkscape:window-x="900"
     inkscape:window-y="44"
     inkscape:window-maximized="0"
     inkscape:current-layer="g1" /><g
     inkscape:groupmode="layer"
     inkscape:label="Image"
     id="g1"
     style="display:inline"
     transform="matrix(0.59973944,0,0,0.59973944,-2.7708069,-3.9387866)"><path
       style="display:inline;fill:#f29513;fill-opacity:1;stroke-width:0.68592"
       d="m 59.227472,289.63156 c -4.767937,-3.0854 -10.929203,-7.0467 -13.691701,-8.80288 -26.115195,-16.60201 -40.7271449,-26.12012 -40.9114165,-26.6494 -0.1214896,-0.34898 2.3247449,-2.26544 5.4360695,-4.2588 3.111335,-1.99336 10.216763,-6.55659 15.789854,-10.14051 5.573079,-3.58393 14.473385,-9.29421 19.778439,-12.68951 5.305065,-3.39529 12.428367,-7.96137 15.829555,-10.14683 3.401199,-2.18547 6.48469,-3.78774 6.852201,-3.56061 0.393501,0.2432 0.66821,5.47229 0.66821,12.71905 v 12.30605 H 179.5853 c 69.49938,0 69.41126,-0.0264 74.25073,-1.36041 6.64128,-1.83068 11.11291,-4.26503 15.69913,-8.35265 4.62029,-4.118 11.07653,-12.80301 12.41079,-22.16867 1.21075,-8.49866 0.23709,-32.60097 0.35357,-50.7715 l 0.34295,-53.50169 h 15.43318 15.43318 l 0.20507,50.07209 c 0.14159,34.57612 -0.038,52.0887 -0.58045,56.58832 -1.66202,13.78723 -8.01974,27.69418 -17.13388,37.47884 -10.77865,11.57165 -20.81147,17.52884 -35.71424,21.21617 -24.9377,4.10885 -52.88027,1.66586 -78.44212,1.66586 H 68.978683 v 12.64902 c 0,6.95696 -0.243501,12.79952 -0.541114,12.98346 -0.297612,0.18392 -4.442148,-2.19 -9.210097,-5.2754 z"
       id="path1"
       inkscape:label="arrow bot"
       sodipodi:nodetypes="ssssssssscssssccccscssccsss" /><path
       style="display:inline;fill:#ff6600;fill-opacity:1;stroke-width:0.68592"
       d="m 29.195389,146.96103 c 0,-50.023485 0.07616,-53.391866 1.340371,-59.307833 5.829448,-27.278633 30.454239,-54.215778 58.500945,-54.868589 9.133537,-0.212582 0.441661,-0.152187 72.162015,-0.152187 H 274.06847 V 19.599958 c 0,-7.167854 0.15539,-13.0324617 0.34532,-13.0324617 0.18993,0 5.20571,3.1219491 11.14618,6.9376647 5.94048,3.815715 12.65285,8.127059 14.91638,9.58076 2.26353,1.453712 9.36279,6.034647 15.77613,10.179871 6.41335,4.145213 14.05714,9.003488 16.98621,10.796179 2.92907,1.792691 5.2218,3.570816 5.09494,3.951382 -0.12686,0.380567 -8.71432,6.103957 -19.08325,12.718641 -18.66403,11.906416 -33.81568,21.60649 -40.48192,25.916547 -1.89634,1.226087 -3.72962,2.229245 -4.07395,2.229245 -0.3549,0 -0.62604,-5.496121 -0.62604,-12.68951 V 63.498778 l -110.60444,0.01177 C 93.45858,63.155316 93.799424,63.579158 89.213294,64.791091 74.830523,68.591741 64.156523,79.778889 61.11664,94.238519 60.222515,98.491521 60.061735,106.93317 60.061735,149.62648 v 50.3702 H 44.628568 29.195389 Z"
       id="path17"
       inkscape:label="arrow top"
       sodipodi:nodetypes="ccsssscsssssssssssccssscccs" /><path
       style="fill:url(#linearGradient17);fill-opacity:1;stroke-width:0.458;stroke-dasharray:none"
       d="m 98.477158,212.68366 c 0.198793,-1.25753 0.489022,-2.49286 0.644973,-2.74518 0.333172,-0.53909 28.880779,-0.65151 29.212329,-0.11504 0.11684,0.18905 -0.001,1.42439 -0.26239,2.74518 l -0.47482,2.40145 H 112.85648 98.11572 Z m 85.517522,1.85636 c 0,-0.24198 0.22295,-1.47955 0.49544,-2.75014 l 0.49544,-2.31017 h 18.92258 c 10.40741,0 19.02609,0.1675 19.15261,0.37222 0.12653,0.20471 0.0847,1.38858 -0.0929,2.63079 l -0.32299,2.25858 -19.32506,0.11935 c -12.14707,0.075 -19.32507,-0.0441 -19.32507,-0.32063 z m -83.94735,-11.12259 c 0.1782,-1.32111 0.41556,-2.55644 0.52746,-2.74517 0.1119,-0.18873 6.78907,-0.34315 14.83814,-0.34315 h 14.63468 l -0.27585,1.71575 c -0.15172,0.94365 -0.37086,2.17898 -0.48698,2.74517 l -0.21113,1.02944 H 114.39849 99.723322 Z m 79.37204,1.08665 c 0,-0.72348 0.12869,-1.95881 0.28597,-2.74519 l 0.28594,-1.42978 h 22.39813 22.39813 l -0.26512,1.37259 c -0.14582,0.75493 -0.38442,1.99025 -0.53023,2.74518 l -0.26512,1.37259 h -22.15384 -22.15386 z m -77.83276,-8.17835 c -0.0807,-0.52582 0.0461,-2.01504 0.31165,-3.66024 l 0.24004,-1.48698 h 14.64095 14.64095 l -0.27585,1.71574 c -0.15173,0.94366 -0.37086,2.17899 -0.48698,2.74518 l -0.21113,1.02944 h -14.40346 c -7.92192,0 -14.42719,-0.15441 -14.45617,-0.34314 z m 73.03808,-2.05889 c 0.1782,-1.32112 0.41556,-2.55644 0.52747,-2.74517 0.1119,-0.18874 11.63073,-0.34316 25.59738,-0.34316 h 25.39395 l -0.29095,2.17327 c -0.16002,1.1953 -0.37207,2.43063 -0.47121,2.74518 -0.14136,0.44852 -5.67145,0.57191 -25.63045,0.57191 h -25.4502 z m -71.56753,-9.37937 c 0.19674,-1.19529 0.36998,-2.43061 0.38498,-2.74516 0.0212,-0.44505 3.27504,-0.57192 14.66824,-0.57192 h 14.64096 l -0.004,1.02944 c -0.002,0.5662 -0.13266,1.80152 -0.28863,2.74518 l -0.28359,1.71573 h -14.73756 -14.73733 z m 66.95135,-0.20246 c 0.17334,-1.30667 0.4179,-2.542 0.54349,-2.74518 0.12557,-0.20319 13.10055,-0.36944 28.83328,-0.36944 h 28.60496 l -0.2651,1.3726 c -0.14583,0.75491 -0.38443,1.99025 -0.53025,2.74518 l -0.26512,1.37257 h -28.6182 -28.61821 z m -65.42676,-9.1506 c 0.17333,-1.30667 0.4179,-2.54199 0.54347,-2.74518 0.12558,-0.20319 6.73034,-0.36943 14.67724,-0.36943 h 14.44892 l -0.27223,2.29854 c -0.14973,1.2642 -0.39645,2.49953 -0.54827,2.74518 -0.17009,0.27523 -5.81927,0.44663 -14.72016,0.44663 h -14.44413 z m 59.05897,0.20248 c 0.16001,-1.19531 0.37206,-2.43063 0.4712,-2.74518 0.14198,-0.45048 7.0868,-0.57191 32.70727,-0.57191 h 32.52701 l -0.29095,2.17325 c -0.16003,1.1953 -0.37206,2.43064 -0.47121,2.74519 -0.14198,0.45047 -7.0868,0.57191 -32.70727,0.57191 h -32.52701 z m -57.64551,-9.37936 c 0.17821,-1.32112 0.41556,-2.55646 0.52747,-2.74518 0.1119,-0.18874 6.78906,-0.34316 14.83814,-0.34316 h 14.63469 l -0.31355,1.71574 c -0.17243,0.94366 -0.4855,2.17898 -0.69569,2.74519 l -0.38217,1.02943 H 120.13765 105.6712 Z m 52.6748,2.05492 c -0.11799,-0.19091 -0.0362,-1.27183 0.18183,-2.40204 0.218,-1.13021 0.40534,-2.20934 0.4163,-2.39806 0.0111,-0.18874 16.09184,-0.34316 35.73529,-0.34316 h 35.71536 l -0.29095,2.17327 c -0.16003,1.1953 -0.37208,2.43063 -0.47121,2.74518 -0.14216,0.45106 -7.67059,0.57191 -35.62617,0.57191 -19.49526,0 -35.54246,-0.1562 -35.66045,-0.3471 z m -51.31837,-11.20552 c 0.60906,-3.91639 -0.97263,-3.54586 15.13611,-3.54586 h 14.38134 v 1.3154 c 0,0.72346 -0.12867,1.9588 -0.28595,2.74518 l -0.28596,1.42978 h -14.62397 -14.62398 z m 46.59399,0.91506 c 0.13592,-0.5662 0.38704,-1.80153 0.55806,-2.74519 l 0.31091,-1.71573 h 21.45298 21.45299 v 1.3154 c 0,0.72346 -0.12868,1.9588 -0.28596,2.74518 l -0.28595,1.42978 H 175.42358 153.6985 Z m 48.49501,-1.26911 c 0.14972,-1.2642 0.39644,-2.49953 0.54825,-2.74518 0.17007,-0.27516 5.79869,-0.44663 14.66123,-0.44663 h 14.38519 v 1.3154 c 0,0.72346 -0.12868,1.9588 -0.28595,2.74518 l -0.28597,1.42978 H 216.8159 202.16842 Z m -93.47582,-7.88149 c 0.003,-0.56619 0.13265,-1.80153 0.28863,-2.74518 l 0.28359,-1.71573 h 14.32532 c 7.87892,0 14.40362,0.1544 14.49929,0.34314 0.0957,0.18873 -0.0111,1.42406 -0.23666,2.74518 l -0.41063,2.40204 h -14.37729 -14.37729 z m 40.49248,-1.14382 c 0.16001,-1.1953 0.37206,-2.43064 0.47119,-2.74518 0.1408,-0.44675 4.83391,-0.57191 21.44275,-0.57191 11.69438,0 21.34078,0.1544 21.43646,0.34314 0.0957,0.18873 -0.0111,1.42406 -0.23666,2.74518 l -0.41062,2.40204 h -21.49704 -21.49704 z m 54.6687,0.85786 c 0,-0.72346 0.12867,-1.9588 0.28594,-2.74518 l 0.28597,-1.42977 h 14.35499 14.355 v 1.57156 c 0,0.86437 -0.2008,2.09969 -0.44621,2.74519 l -0.4462,1.17361 H 218.32073 204.126 Z m -93.78859,-8.86464 c 0.003,-0.5662 0.13264,-1.80152 0.28862,-2.74518 l 0.2836,-1.71573 h 14.6213 14.62132 l -0.32212,1.9445 c -0.6334,3.82361 0.56743,3.54585 -15.33044,3.54585 h -14.16732 z m 34.31474,0 c 0.002,-0.5662 0.13264,-1.80152 0.28863,-2.74518 l 0.28359,-1.71573 h 21.60448 21.60447 l -0.36144,2.28641 c -0.19878,1.25752 -0.48902,2.49286 -0.64496,2.74518 -0.18295,0.29601 -7.82156,0.45876 -21.53168,0.45876 h -21.24813 z m 60.67039,0.65723 c -0.12652,-0.20472 -0.0847,-1.38858 0.0929,-2.6308 l 0.32294,-2.25859 14.56489,-0.12086 14.56489,-0.12086 -0.3249,2.40851 c -0.1787,1.32468 -0.41646,2.56294 -0.52836,2.75166 -0.27701,0.4672 -28.40325,0.4387 -28.69235,-0.0291 z m -93.37945,-11.63795 c 0.17821,-1.32111 0.41558,-2.55644 0.52747,-2.74518 0.3082,-0.51977 69.69399,-0.42833 69.69399,0.0918 0,0.23924 -0.22294,1.47458 -0.49544,2.74517 l -0.49544,2.31017 h -34.77729 -34.77729 z m 94.70495,0.6863 c 0.15172,-0.94366 0.37086,-2.17899 0.48696,-2.74518 l 0.21113,-1.02944 h 14.6921 14.6921 l -0.28359,1.71573 c -0.15597,0.94366 -0.28585,2.17899 -0.28863,2.74518 l -0.004,1.02945 h -14.89069 -14.89045 z m -93.32873,-7.87135 c -0.14836,-0.24007 -0.17343,-0.9092 -0.0557,-1.48697 0.11773,-0.57777 0.33384,-1.61668 0.48024,-2.3087 l 0.2662,-1.2582 h 31.82982 31.82983 l -0.32212,1.94451 c -0.64827,3.91336 2.71614,3.54585 -32.4608,3.54585 -19.36578,0 -31.40054,-0.16641 -31.56746,-0.43649 z m 95.16622,0 c -0.14838,-0.24007 -0.17344,-0.9092 -0.0557,-1.48697 0.11773,-0.57777 0.33384,-1.61668 0.48024,-2.3087 l 0.26618,-1.2582 h 14.44641 14.44642 l -0.32401,2.40204 c -0.17821,1.32111 -0.41556,2.55644 -0.52747,2.74517 -0.30596,0.51605 -28.41188,0.42474 -28.73206,-0.0934 z m -93.76505,-10.65861 c 0.1361,-0.81784 0.34077,-1.95022 0.45481,-2.51641 l 0.20734,-1.02945 h 28.64676 28.64676 l -0.28358,1.71574 c -0.15598,0.94366 -0.28587,2.07605 -0.28863,2.51642 -0.004,0.75402 -1.68403,0.80067 -28.81798,0.80067 h -28.81294 z m 95.09552,-0.90676 c 0.17465,-1.31656 0.37564,-2.45183 0.44665,-2.52285 0.071,-0.0711 6.69949,-0.0747 14.72994,-0.008 l 14.60084,0.12081 -0.38249,2.40202 -0.38248,2.40203 h -14.66499 -14.66501 z m -93.53575,-7.3793 c 0,-0.34234 0.13094,-1.57768 0.29096,-2.74519 l 0.29095,-2.122744 h 24.56817 c 13.5125,0 24.67048,0.102361 24.79553,0.22737 0.12505,0.125042 0.022,1.360378 -0.22901,2.745174 l -0.45637,2.51783 h -24.63011 c -20.46536,0 -24.63012,-0.10525 -24.63012,-0.62244 z m 94.92231,-1.49495 c 0.17463,-1.16456 0.42593,-2.39989 0.55842,-2.745174 0.19722,-0.513903 2.88992,-0.62781 14.84164,-0.62781 h 14.60071 l -0.2111,1.029448 c -0.11613,0.566193 -0.33527,1.801526 -0.48699,2.745176 l -0.27587,1.71575 h -14.67216 -14.67217 z m -93.38585,-9.206484 c 0.15598,-0.943651 0.28586,-2.076037 0.28863,-2.51641 0.004,-0.751231 1.34632,-0.800679 21.72626,-0.800679 h 21.72124 l -0.24748,1.486974 c -0.1361,0.817831 -0.34076,1.950217 -0.4548,2.51641 l -0.20734,1.029448 h -21.55505 -21.55505 z m 94.70279,0.915064 c 0.12082,-0.440374 0.34991,-1.57276 0.5091,-2.516422 l 0.28945,-1.715731 h 14.64096 14.64095 l -0.28944,1.715731 c -0.61695,3.657045 0.95819,3.317101 -15.3697,3.317101 -13.72242,0 -14.62718,-0.05018 -14.42132,-0.800679 z"
       id="path2"
       inkscape:label="N" /></g></svg>
